<?xml version="1.0" encoding="UTF-8" standalone="no"?>
<svg
   data-name="Layer 1"
   width="559.67004"
   height="559.67004"
   viewBox="0 0 559.67004 559.67004"
   version="1.1"
   id="svg2443"
   sodipodi:docname="menu3.svg"
   inkscape:version="1.1.2 (0a00cf5339, 2022-02-04)"
   xmlns:inkscape="http://www.inkscape.org/namespaces/inkscape"
   xmlns:sodipodi="http://sodipodi.sourceforge.net/DTD/sodipodi-0.dtd"
   xmlns="http://www.w3.org/2000/svg"
   xmlns:svg="http://www.w3.org/2000/svg">
  <defs
     id="defs2447" />
  <sodipodi:namedview
     id="namedview2445"
     pagecolor="#ffffff"
     bordercolor="#666666"
     borderopacity="1.0"
     inkscape:pageshadow="2"
     inkscape:pageopacity="0.0"
     inkscape:pagecheckerboard="0"
     showgrid="false"
     inkscape:zoom="0.22733182"
     inkscape:cx="393.69763"
     inkscape:cy="248.53537"
     inkscape:window-width="1366"
     inkscape:window-height="704"
     inkscape:window-x="0"
     inkscape:window-y="0"
     inkscape:window-maximized="1"
     inkscape:current-layer="svg2443" />
  <path
     d="m 20.42945,496.14264 a 2.80742,2.80742 0 0 1 -2.03464,-4.86594 l 0.19236,-0.76477 q -0.038,-0.0919 -0.0764,-0.18359 A 7.5391,7.5391 0 0 0 4.604,490.38 c -2.27452,5.47809 -5.17037,10.96552 -5.8834,16.75773 a 22.30391,22.30391 0 0 0 0.39152,7.67062 89.41957,89.41957 0 0 1 -8.13412,-37.13873 86.3069,86.3069 0 0 1 0.53535,-9.6283 q 0.44349,-3.93127 1.23055,-7.80652 a 90.45546,90.45546 0 0 1 17.9381,-38.33731 24.07259,24.07259 0 0 0 10.0118,-10.38736 18.3625,18.3625 0 0 0 1.67,-5.01791 c -0.48739,0.0639 -1.83779,-7.3591 -1.47017,-7.81452 -0.67924,-1.0307 -1.895,-1.54306 -2.63681,-2.54886 -3.68943,-5.0021 -8.77253,-4.12872 -11.42613,2.66877 -5.6687,2.861 -5.72357,7.60577 -2.24528,12.16916 2.2129,2.90326 2.517,6.83166 4.45862,9.93985 -0.1998,0.2557 -0.40756,0.50344 -0.6073,0.75915 a 91.0398,91.0398 0 0 0 -9.50223,15.0538 37.8458,37.8458 0 0 0 -2.25945,-17.5787 c -2.16269,-5.21726 -6.21632,-9.61124 -9.786,-14.12152 -4.2878,-5.41757 -13.08034,-3.05326 -13.83575,3.81439 q -0.011,0.0998 -0.02142,0.19943 0.79533,0.44865 1.55706,0.95249 a 3.808,3.808 0 0 1 -1.53532,6.92993 l -0.07765,0.012 a 37.89041,37.89041 0 0 0 0.99876,5.66516 c -4.57953,17.71004 5.30727,24.16042 19.42427,24.45019 0.31164,0.15979 0.61531,0.31958 0.927,0.47143 a 92.92463,92.92463 0 0 0 -5.002,23.53931 88.13536,88.13536 0 0 0 0.06393,14.23065 l -0.024,-0.16778 a 23.28909,23.28909 0 0 0 -7.95037,-13.44764 c -6.11821,-5.02591 -14.7621,-6.87664 -21.36259,-10.9165 a 4.37072,4.37072 0 0 0 -6.69422,4.252 q 0.01328,0.0882 0.027,0.17643 a 25.57635,25.57635 0 0 1 2.86848,1.38226 q 0.79533,0.44878 1.55706,0.95248 a 3.8081,3.8081 0 0 1 -1.53533,6.93 l -0.07771,0.0119 c -0.05591,0.008 -0.10388,0.016 -0.15972,0.024 a 37.9228,37.9228 0 0 0 6.97547,10.92272 c 2.86344,15.46021 15.162,16.927 28.31753,12.42487 h 0.008 a 92.89686,92.89686 0 0 0 6.24044,18.2178 h 22.2928 c 0.08,-0.24768 0.15184,-0.50341 0.22378,-0.75116 A 25.32843,25.32843 0 0 1 13.926,514.92828 c 1.654,-2.02954 3.308,-4.07513 4.962,-6.10464 a 1.38106,1.38106 0 0 0 0.10388,-0.11987 c 0.839,-1.03867 1.686,-2.06946 2.52491,-3.10816 l 4.5e-4,-0.001 a 37.10115,37.10115 0 0 0 -1.08711,-9.45126 l -7.1e-4,-4.3e-4 z"
     fill="#f2f2f2"
     id="path2389" />
  <path
     d="m 46.07022,515.54742 h 35.97354 c 6.15261,-20.71624 0.0329,-69.67535 8.14252,-89.68646 15.55875,-38.36871 35.43533,-78.85281 72.53424,-97.5874 15.84012,-7.99951 33.11136,-11.124 50.74951,-10.95383 24.36563,0.231 49.41629,6.77167 72.35083,15.43991 9.38175,3.53784 18.67783,7.42816 27.93726,11.40363 34.885,14.99008 69.39074,31.31744 106.90552,35.73059 47.47143,5.5802 103.28485,-15.65872 116.25048,-61.407 9.89551,-35.02545 -7.92614,-71.38816 -26.61627,-102.66919 -18.69006,-31.28095 -39.58191,-64.75028 -36.16919,-100.96712 0.0122,-0.12154 0.0244,-0.25533 0.0489,-0.37688 1.2843,-13.00842 9.05145,-22.3572 19.90106,-28.35079 h -47.23907 c -0.62378,33.78536 18.92254,63.60722 36.51178,93.05239 18.69006,31.26885 36.51172,67.64374 26.61627,102.66919 -12.9657,45.73609 -120.32733,-7.87607 -167.79877,-13.4685 -13.40594,-1.56827 7.8895,4.01193 -4.8927,0 -20.04785,-6.28543 -22.27038,51.36316 -41.78,42.90158 -12.14611,-5.27634 -24.30447,-10.51618 -36.62185,-15.1724 -5.10062,-1.93307 -10.31134,-3.7445 -15.58322,-5.42221 a 0.03536,0.03536 0 0 1 -0.0245,-0.0122 c -35.39868,-11.20908 -74.11212,-15.57361 -106.81979,0.6322 -0.22016,0.10937 -0.45258,0.21881 -0.67281,0.32818 -37.09883,18.72242 -56.97543,59.20652 -72.53425,97.57523 -12.85558,31.71866 -10.83346,92.88385 -17.16948,126.341 z"
     fill="#f2f2f2"
     id="path2391" />
  <path
     d="M 259.31256,514.48614 C 83.74773,518.20477 79.898,441.30121 79.898,349.82913 c 0,-91.47208 80.059,-163.02872 179.26774,-163.02872 99.20874,0 178,71.53016 178,163 0,91.46984 -78.64438,164.68573 -177.85318,164.68573 z"
     fill="#ffffff"
     id="path2393" />
  <path
     d="M 258.31256,515.48614 C 82.74773,519.20477 78.898,442.30121 78.898,350.82913 c 0,-91.47208 80.7125,-165.88719 179.92124,-165.88719 99.20874,0 179.92127,74.41731 179.92127,165.88719 0,91.46988 -81.21921,164.65701 -180.42795,164.65701 z m 0.50675,-325.97961 c -96.47959,0 -173.34583,72.38168 -174.97057,161.32263 -1.5112,82.72626 93.80589,185.95673 174.97053,161.32483 43.52631,-44.198 166.58686,-91.80173 174.97059,-161.32483 10.66119,-88.40878 -78.491,-161.32261 -174.97059,-161.32261 z"
     fill="#3f3d56"
     id="path2395" />
  <path
     d="m -100,515.6756 a 1.18647,1.18647 0 0 0 1.19006,1.19 H 616.48 a 1.19,1.19 0 0 0 0,-2.38 H -98.80994 a 1.1865,1.1865 0 0 0 -1.19006,1.19 z"
     fill="#cccccc"
     id="path2397" />
  <polygon
     points="463.746,452.8 481.977,452.801 481.974,500.445 469.622,500.445 "
     fill="#a0616a"
     id="polygon2399"
     transform="translate(-100)" />
  <path
     d="m 382.409,513.331 -37.98423,-10e-4 v -0.48035 A 14.78532,14.78532 0 0 1 359.20932,498.065 h 9.2e-4 l 6.93829,-5.26376 12.94534,5.26455 3.31577,1.3e-4 -6.4e-4,15.26516 z"
     fill="#2f2e41"
     id="path2401" />
  <path
     d="m 363.20563,390.00549 a 183.96221,183.96221 0 0 0 -48.01349,-33.6098 l -9.02643,10.18955 5.74908,-11.73929 a 183.95664,183.95664 0 0 0 -151.055,-0.79816 l 4.6899,10.1865 -7.20131,-9.05283 a 183.82842,183.82842 0 0 0 -50.33588,34.60638 8.34063,8.34063 0 0 0 -2.62481,5.39746 7.84425,7.84425 0 0 0 2.29657,6.09174 c 2.26971,1.07446 5.504,3.54046 10.30957,10.30859 a 7.94,7.94 0 0 0 11.08093,0.0683 153.01148,153.01148 0 0 1 212.84424,0 7.93965,7.93965 0 0 0 11.08068,-0.0684 c 4.836,-4.34936 5.96589,-10.4975 10.12012,-10.12012 a 8.241,8.241 0 0 0 2.49213,-5.35125 7.88246,7.88246 0 0 0 -2.4063,-6.10871 z"
     fill="#6c63ff"
     id="path2403" />
  <polygon
     points="350.803,357.187 369.033,357.188 369.031,404.832 356.679,404.831 "
     fill="#a0616a"
     id="polygon2405"
     transform="translate(-100)" />
  <path
     d="m 269.46582,417.71768 -37.98422,-10e-4 v -0.48038 a 14.78535,14.78535 0 0 1 14.78451,-14.7843 h 9.2e-4 l 6.93829,-5.26377 12.94535,5.26456 3.31576,1.2e-4 -6.1e-4,15.26517 z"
     fill="#2f2e41"
     id="path2407" />
  <path
     d="m 396.09705,229.41733 -87.66,9.15851 -21.53905,21.28216 -34.2616,11.18744 a 22.27825,22.27825 0 0 0 -15.34411,20.23129 c -0.89151,20.896 -2.65372,55.5885 -4.51422,55.22519 -2.66047,-0.51953 2.65744,12.4809 6.38229,11.72611 3.72485,-0.75479 7.59817,7.7218 5.02313,9.22894 -2.57504,1.50714 1.71451,14.401 1.71451,14.401 l 26.83206,-4.32333 c 3.35871,-25.33423 15.62558,-52.03678 1.16794,-70.67667 24.48474,-7.94549 46.05481,-14.58969 61.9148,-18.68457 l 8.5782,-3.5594 v 0 l 17.80954,189.23209 25.18631,0.41363 c 6.94965,-35.75055 10.44092,-67.927 5.00882,-90.88113 0,0 0.78037,-68.95627 3.75891,-68.20227 2.97854,0.754 0.45355,-8.22916 0.45355,-8.22916 0,0 -2.60858,-7.65069 0.59659,-10.82461 3.20517,-3.17392 1.20377,-21.84131 1.20377,-21.84131 5.29581,-17.66611 3.70172,-32.25266 -2.31143,-44.86389 z"
     fill="#2f2e41"
     id="path2409" />
  <path
     d="m 406.46066,190.80437 q 1.30225,-5.84034 2.6045,-11.68164 v 0 q 3.6577,-16.35645 7.30368,-32.69825 c 3.1914,-14.27441 6.39648,-29.04589 3.65136,-43.41015 a 43.13488,43.13488 0 0 0 -1.72363,-6.3584 C 414.18524,84.89714 405.10712,74.59343 393.06805,72.42351 l -1.96679,-7.3291 -26.86326,-3.30665 -5.084,7.01172 c -10.94336,-0.875 -17.43945,10.02148 -24.98828,19.001 l -3,3 c -2.18652,2.73438 -2.63477,13.00684 -4,16 -6.07031,13.30957 2.29492,0.375 2,15 -0.30469,15.15527 -3.28488,29.86145 -3.59055,45.01575 -0.0326,1.62608 -3.53179,2.86572 -4.13385,5.71653 -0.325,1.5387 2.38608,4.393 1.975,6.1133 -0.35086,1.46819 1.40088,7.36911 1.025,8.8867 -1.74362,7.04018 -5.69311,9.81223 -5.86615,13.28347 a 22.34707,22.34707 0 0 1 -0.59481,3.96243 c -0.21622,0.92271 -3.24408,-0.183 -3.539,0.7541 -0.49557,1.57445 1.68442,5.20005 1.08692,6.77608 -1.15631,3.04993 -0.37854,8.43677 -1.08692,11.22394 -2.97265,11.70117 -1.83123,7.05775 -8.2756,17.26772 16.49414,4.98632 23.61816,21.68554 40.585,24.6914 q 1.147,-3.70752 2.28711,-7.43457 c 2.249,0.14453 4.51172,0.2793 6.77441,0.40332 v 0 c 0.127,2.15723 0.25489,4.31543 0.38282,6.46 a 438.51186,438.51186 0 0 0 51.65722,0.28125 41.03079,41.03079 0 0 1 -1.3789,-5.28613 c -0.94434,-4.97949 1.08594,-10.37988 1.30273,-15.30859 0.15332,-3.65137 -1.583,-6.75391 -1.53222,-10.68653 0.0127,-0.72754 4.09863,-1.33984 4.08593,-2.08105 -0.0645,-6.53711 -3.77929,-15.28321 -2.55371,-21.70508 1.27637,-6.60059 -2.77051,-12.7666 -1.31543,-19.32813 v -0.002 0 z"
     fill="#3f3d56"
     id="path2411" />
  <path
     d="m 280.8053,32.90525 a 8.60068,8.60068 0 0 0 -8.5907,8.5907 v 51.76367 a 8.60068,8.60068 0 0 0 8.5907,8.5907 h 16.01437 a 8.60071,8.60071 0 0 0 8.59073,-8.59072 c 2.55231,-26.00986 1.61432,-40.04684 0,-51.76364 a 8.60072,8.60072 0 0 0 -8.59073,-8.59073 H 280.8053 Z"
     fill="#6c63ff"
     id="path2413" />
  <path
     d="m 278.8053,32.90525 a 8.60081,8.60081 0 0 0 -8.59073,8.59051 c -0.91992,20.34766 -1.55957,39.75293 0,51.76367 a 8.60051,8.60051 0 0 0 8.59073,8.59089 h 16.01437 a 8.60069,8.60069 0 0 0 8.5907,-8.5907 V 41.496 a 8.60068,8.60068 0 0 0 -8.5907,-8.5907 z"
     fill="#3f3d56"
     id="path2415" />
  <path
     d="m 320.032,108.2419 c 0,0 15.14664,-0.61431 7.43726,5.92561 -5.01682,4.25579 -16.31363,33.88333 -28.05057,37.4675 a 10.43237,10.43237 0 0 1 -13.24341,-7.79559 l -10.63915,-49.58933 13.89749,-2.11391 8.46967,39.248 22.12871,-23.14227 z"
     fill="#a0616a"
     id="path2417" />
  <circle
     cx="283.25354"
     cy="88.042641"
     r="9.8293104"
     fill="#a0616a"
     id="circle2419" />
  <path
     d="m 340.57758,81.14425 v 0 c 9.00406,6.76205 11.65573,28.93625 5.99759,38.67195 -10.816,18.61063 -32.13944,32.93929 -33.0488,30.94933 -1.2453,-2.72508 -3.41535,0.93412 -3.34162,2.132 0.0737,1.19788 -4.03411,0.84074 -3.55551,2.10841 0.4786,1.26767 -2.76324,1.543 -4.17123,2.278 0,0 -12.88547,0.21785 -16.95078,-5.66227 -4.06531,-5.88012 -4.6102,-14.00591 -4.6102,-14.00591 l -5.04672,-5.93794 26.7572,-15.64123 -2.20511,10.55741 13.34791,-15.54226 2.82492,-6.23551 4.50674,-2.30143 1.49326,-4.69857 4.15545,-1.8788 16.43509,-19.13694 -2.58813,4.3438 z"
     fill="#3f3d56"
     id="path2421" />
  <path
     d="m 414.51074,263.30347 a 9.203,9.203 0 0 0 1.6051,-14.02015 l 1.89057,-84.0848 -16.61432,2.58465 1.17154,81.557 a 9.25289,9.25289 0 0 0 11.94711,13.96331 z"
     fill="#a0616a"
     id="path2423" />
  <path
     d="m 415.23492,93.52463 c 0,0 -1.10223,0.833 4.5495,9.44462 1.12085,1.7078 1.88044,8.594 2.41205,17.58013 0.17322,2.92755 1.83985,4.98422 1.96924,8.25108 0.10986,2.77251 -1.312,6.72263 -1.2276,9.59776 0.045,1.53353 1.18854,2.86789 1.2276,4.40224 0.0163,0.63956 -1.06958,1.48285 -1.05426,2.12012 q 0.0248,1.03086 0.0481,2.05557 c 0.38836,17.07907 0.47161,32.50433 0.8573,32.24384 0.82244,-0.55552 -1.22016,2.31582 -0.19886,2.7953 1.0213,0.47948 -0.87219,2.85812 -0.38415,4.091 0.5946,1.50213 -0.14447,3.15925 -0.61151,4.66714 -1.34851,4.354 -1.639,8.09276 -2.81165,10.161 a 7.22977,7.22977 0 0 1 3.3703,8.19775 l -23.41678,-4.23364 c -2.855,-4.57362 -2.4425,-9.37378 -0.49707,-10.21033 l -0.57928,-14.88305 -6.66916,-76.99859 19.54553,-8.72657 3.4707,-0.55534 z"
     fill="#3f3d56"
     id="path2425" />
  <path
     d="m 269.898,46.18139 c -0.33618,0 -0.60956,0.16016 -0.60956,0.35711 v 2.8569 c 0,0.197 0.27338,0.35711 0.60956,0.35711 0.33618,0 0.60956,-0.16016 0.60956,-0.35711 v -2.8569 c 10e-6,-0.19695 -0.27337,-0.35711 -0.60956,-0.35711 z"
     fill="#3f3d56"
     id="path2427" />
  <path
     d="m 269.898,53.75209 c -0.33618,0 -0.60956,0.16016 -0.60956,0.35711 v 5.53524 c 0,0.19695 0.27338,0.35711 0.60956,0.35711 0.33618,0 0.60956,-0.16016 0.60956,-0.35711 V 54.1092 c 10e-6,-0.19695 -0.27337,-0.35711 -0.60956,-0.35711 z"
     fill="#3f3d56"
     id="path2429" />
  <path
     d="m 303.898,54.75209 a 0.6908,0.6908 0 0 0 -0.60956,0.74891 v 11.60812 a 0.62252,0.62252 0 1 0 1.21912,0 V 55.501 A 0.6908,0.6908 0 0 0 303.898,54.75209 Z"
     fill="#3f3d56"
     id="path2431" />
  <path
     d="m 268.898,62.60856 c -0.33618,0 -0.60956,0.16016 -0.60956,0.35711 v 5.53524 c 0,0.197 0.27338,0.35711 0.60956,0.35711 0.33618,0 0.60956,-0.16016 0.60956,-0.35711 v -5.53524 c 10e-6,-0.19695 -0.27337,-0.35711 -0.60956,-0.35711 z"
     fill="#3f3d56"
     id="path2433" />
  <circle
     cx="375.78857"
     cy="34.08717"
     r="25.104099"
     fill="#a0616a"
     id="circle2435" />
  <path
     d="m 403.819,45.62181 c -1.95984,3.92214 -3.82553,6.37518 -7.21374,8.56767 a 11.974,11.974 0 0 1 -0.41633,-1.52864 c -0.36068,0.80618 -0.71279,1.61052 -1.08194,2.41851 -2.14364,1.197 0.17,-0.64976 -3.339,0.68864 l -2.95185,-5.06561 c -0.80847,-2.40462 0.33722,-5.02347 1.79373,-7.10441 1.45835,-2.07243 3.27359,-3.97244 4.06412,-6.38186 0.79059,-2.40938 0.089,-5.60139 -2.28094,-6.4982 -2.33411,-0.89559 -4.91242,0.80346 -7.39353,0.50828 -2.86352,-0.33772 -4.812,-3.33376 -4.96722,-6.21611 -0.15527,-2.88239 1.02081,-5.64995 2.17142,-8.28761 -3.46775,2.48513 -14.21009,6.93748 -20.058,7.1502 a 7.23989,7.23989 0 0 0 -2.35937,-4.74807 6.58972,6.58972 0 0 1 -1.13065,4.7224 c -5.72525,-0.2936 -6.80145,8.02235 -9.75766,5.01106 0.92279,-0.46434 -2.478,-10.79906 -1.55524,-11.2634 q -1.06525,-2.91853 -2.1268,-5.82011 c 1.31546,0.33155 2.6413,0.66978 3.9653,0.99951 a 5.66454,5.66454 0 0 1 0.63392,-2.02033 13.70744,13.70744 0 0 1 2.9917,-1.26307 c 0.33633,-0.08985 0.68112,-0.1815 1.02963,-0.25616 a 13.76992,13.76992 0 0 1 1.56323,-0.25485 c -0.76123,-0.44138 -1.52917,-0.87249 -2.29221,-1.32232 -0.0911,-0.05162 -0.17361,-0.10507 -0.26467,-0.15668 a 29.29276,29.29276 0 0 1 3.35174,-1.98914 c 4.89191,-2.5591 9.969,-5.16671 15.483,-5.48569 a 15.50688,15.50688 0 0 1 10.04752,2.89233 13.90236,13.90236 0 0 0 8.6445,2.60046 9.90168,9.90168 0 0 1 4.34583,0.96792 13.92638,13.92638 0 0 1 -2.02949,1.68812 c 1.59116,0.04137 3.1738,0.08457 4.76673,0.13446 a 21.9753,21.9753 0 0 1 4.45312,5.64176 c 5.58014,9.53378 6.85541,21.79421 1.91324,31.67094 z"
     fill="#2f2e41"
     id="path2437" />
  <path
     d="m 323.20172,436.7262 a 7.96034,7.96034 0 0 0 -4.27148,-5.90528 181.168,181.168 0 0 0 -33.20673,-13.04907 l -10.73471,14.15165 7.93393,-14.93235 a 183.00688,183.00688 0 0 0 -89.80652,-1.274 l 4.128,11.38229 -6.74377,-10.73092 a 181.60483,181.60483 0 0 0 -38.43744,14.45239 8.02516,8.02516 0 0 0 -2.02136,12.81348 c 4.641,0.28522 7.70575,4.59723 10.76465,10.76465 a 7.98489,7.98489 0 0 0 9.0736,1.51074 152.76969,152.76969 0 0 1 131.23389,0 7.9815,7.9815 0 0 0 9.07239,-1.51074 c 1.839,-4.98651 5.62921,-7.93506 10.76562,-10.76465 a 7.93483,7.93483 0 0 0 2.24993,-6.90819 z"
     fill="#6c63ff"
     id="path2439" />
  <path
     d="m 263.89362,485.46057 q -3.52606,-0.55371 -7.09491,-0.96674 l -9.32557,14.83917 6.94855,-15.09229 a 186.32792,186.32792 0 0 0 -33.977,-0.35748 l 7.1131,15.44977 -9.575,-15.23615 q -5.48172,0.51966 -10.88312,1.36377 a 6.62371,6.62371 0 0 0 -5.354,4.58008 6.812,6.812 0 0 0 1.66125,6.95807 c 3.85071,3.7724 8.09656,9.01074 15.07422,15.07422 a 6.69756,6.69756 0 0 0 5.2547,1.97552 c 3.8667,-0.28613 7.82373,-0.43164 11.76074,-0.43164 h 6e-5 c 3.937,0 7.894,0.14551 11.76075,0.43164 a 6.71784,6.71784 0 0 0 5.255,-1.97552 c 7.20557,-6.15076 10.8468,-11.79047 15.07422,-15.07422 a 6.811,6.811 0 0 0 1.661,-6.95807 6.6224,6.6224 0 0 0 -5.35399,-4.58013 z"
     fill="#6c63ff"
     id="path2441" />
</svg>
