<?xml version="1.0" encoding="UTF-8" standalone="no"?>
<svg
   data-name="Layer 1"
   width="502.61969"
   height="502.61969"
   viewBox="0 0 502.6197 502.6197"
   version="1.1"
   id="svg197"
   sodipodi:docname="menu1.svg"
   inkscape:version="1.1.2 (0a00cf5339, 2022-02-04)"
   xmlns:inkscape="http://www.inkscape.org/namespaces/inkscape"
   xmlns:sodipodi="http://sodipodi.sourceforge.net/DTD/sodipodi-0.dtd"
   xmlns="http://www.w3.org/2000/svg"
   xmlns:svg="http://www.w3.org/2000/svg">
  <defs
     id="defs201" />
  <sodipodi:namedview
     id="namedview199"
     pagecolor="#ffffff"
     bordercolor="#666666"
     borderopacity="1.0"
     inkscape:pageshadow="2"
     inkscape:pageopacity="0.0"
     inkscape:pagecheckerboard="0"
     showgrid="false"
     inkscape:zoom="0.64071367"
     inkscape:cx="333.22217"
     inkscape:cy="230.21204"
     inkscape:window-width="1366"
     inkscape:window-height="704"
     inkscape:window-x="0"
     inkscape:window-y="0"
     inkscape:window-maximized="1"
     inkscape:current-layer="svg197" />
  <path
     d="m 342.68618,435.30992 a 87.33929,87.33929 0 0 0 44.47022,13.94 20.84973,20.84973 0 0 1 -0.9502,1.96 25.06735,25.06735 0 0 1 -7.60009,8.55 24.96917,24.96917 0 0 1 -39.33985,-20.42 v -4.03 z"
     fill="#3f3d56"
     id="path135" />
  <path
     d="m 435.9562,436.48991 v 2.85 a 24.96061,24.96061 0 0 1 -46.87988,11.95 20.84826,20.84826 0 0 1 -0.99023,-2.01 c 0.73,0.02 1.45019,0.03 2.18017,0.03 a 87.46657,87.46657 0 0 0 45.68994,-12.82 z"
     fill="#3f3d56"
     id="path137" />
  <path
     d="m 469.59634,135.1099 c -0.75,-0.11 -1.51025,-0.18 -2.27,-0.23 a 83.981,83.981 0 0 1 1.66992,62.71 c 0.76026,-0.09 1.51026,-0.21 2.26026,-0.35 a 31.50228,31.50228 0 0 0 -1.66016,-62.13 z"
     fill="#3f3d56"
     id="path139" />
  <path
     d="m 313.2062,134.87992 c -0.75976,0.05 -1.52,0.12 -2.27,0.23 a 31.50227,31.50227 0 0 0 -1.66015,62.13 c 0.75,0.14 1.5,0.26 2.26025,0.35 a 83.981,83.981 0 0 1 1.66992,-62.71 z"
     fill="#3f3d56"
     id="path141" />
  <path
     d="m 469.59634,135.1099 a 85.99677,85.99677 0 1 0 6.66992,33.2 86.1148,86.1148 0 0 0 -6.66992,-33.2 z m -0.6001,62.48 a 83.981,83.981 0 1 1 5.27,-29.28 84.122,84.122 0 0 1 -5.27,29.28004 z"
     fill="#3f3d56"
     id="path143" />
  <path
     d="m 434.26626,148.80992 h -88 a 17.5,17.5 0 0 0 0,35 h 88 a 17.5,17.5 0 0 0 0,-35 z"
     fill="#3f3d56"
     id="path145" />
  <path
     d="m 390.26626,271.30992 a 89.99675,89.99675 0 0 0 -4.06006,179.9 c 0.9502,0.05 1.91016,0.08 2.87012,0.08 0.3999,0.02 0.79,0.02 1.18994,0.02 a 90,90 0 0 0 0,-180 z m 45.68994,165.18 a 87.46657,87.46657 0 0 1 -45.68994,12.82 c -0.73,0 -1.45019,-0.01 -2.18017,-0.03 q -0.46509,0 -0.92969,-0.03 a 88.0512,88.0512 0 1 1 48.7998,-12.76 z"
     fill="#3f3d56"
     id="path147" />
  <path
     d="m 453.43301,339.14341 h -39.3335 a 10.3335,10.3335 0 0 1 0,-20.667 h 39.3335 a 10.3335,10.3335 0 0 1 0,20.667 z"
     fill="#3f3d56"
     id="path149" />
  <circle
     cx="416.72183"
     cy="328.80994"
     fill="#f2f2f2"
     id="circle151"
     r="5.2444401" />
  <circle
     cx="433.76624"
     cy="328.80994"
     fill="#f2f2f2"
     id="circle153"
     r="5.2444401" />
  <circle
     cx="450.81073"
     cy="328.80994"
     fill="#6c63ff"
     id="circle155"
     r="5.2444401" />
  <path
     d="m 164.62538,461.69756 c 8.99256,-7.59864 14.45479,-19.60227 13.02232,-31.28788 -1.43247,-11.68561 -10.30472,-22.42829 -21.81332,-24.90978 -11.5086,-2.48149 -24.62761,4.38768 -28.12315,15.62987 -1.92376,-21.6745 -4.14055,-44.25714 -15.6641,-62.715 -10.43429,-16.71314 -28.50667,-28.672 -48.09305,-30.81147 -19.58638,-2.13947 -40.20832,5.941 -52.42362,21.40027 -12.2153,15.45927 -15.20618,37.93388 -6.6509,55.68241 6.30238,13.07473 17.91358,22.80511 30.07923,30.72127 38.81262,25.2553 86.95964,33.78829 132.77224,27.04622 z"
     fill="#f2f2f2"
     id="path157" />
  <path
     d="m 30.89909,333.9922 a 317.625,317.625 0 0 1 44.26411,43.95415 322.163,322.163 0 0 1 34.90754,51.66276 320.84426,320.84426 0 0 1 14.94817,31.65122 c 0.89773,2.19991 -2.67454,3.15752 -3.56229,0.98208 A 315.27614,315.27614 0 0 0 92.64885,407.73684 317.26015,317.26015 0 0 0 54.01301,360.00784 316.50072,316.50072 0 0 0 28.28685,336.60443 c -1.8443,-1.5018 0.78314,-4.10164 2.61223,-2.61223 z"
     fill="#ffffff"
     id="path159" />
  <circle
     cx="81.576492"
     cy="115"
     fill="#2f2e41"
     id="circle161"
     r="31" />
  <path
     d="m 197.19359,228.51128 a 10.77786,10.77786 0 0 1 -2.14862,2.37261 11.0024,11.0024 0 0 1 -16.227,-2.49759 10.23957,10.23957 0 0 1 -0.53728,-0.9378 l -48.84971,-4.713 a 18.013,18.013 0 0 1 -15.887,-14.49974 l -2.77273,-14.61708 19.06439,-2.96585 3.42115,11.7085 47.6279,11.69913 a 10.48965,10.48965 0 0 1 1.17046,-0.89009 11.00253,11.00253 0 0 1 15.13851,15.341 z"
     fill="#ffb8b8"
     id="path163" />
  <path
     d="m 134.42775,200.594 -21.296,5.75282 a 4.50507,4.50507 0 0 1 -5.51783,-3.17073 l -7.459,-27.61183 a 12.3986,12.3986 0 0 1 23.00384,-8.88775 l 14.10045,27.5212 a 4.49956,4.49956 0 0 1 -2.83146,6.39629 z"
     fill="#2f2e41"
     id="path165" />
  <polygon
     points="202.092,374.133 214.351,374.133 220.184,326.845 202.089,326.846 "
     fill="#ffb8b8"
     id="polygon167"
     transform="translate(-80,80)" />
  <path
     d="m 157.99568,465.51575 -38.53073,0.002 -6.8e-4,-14.88687 23.64387,-10e-4 a 14.88686,14.88686 0 0 1 14.88754,14.88618 v 0 z"
     fill="#2f2e41"
     id="path169" />
  <polygon
     points="92.822,362.185 104.292,366.515 126.454,324.337 109.526,317.946 "
     fill="#ffb8b8"
     id="polygon171"
     transform="translate(-80,80)" />
  <path
     d="m 42.39011,465.51746 -36.046862,-13.61032 5.258532,-13.92719 22.11968,8.35179 a 14.88686,14.88686 0 0 1 8.66865,19.18571 v 0 z"
     fill="#2f2e41"
     id="path173" />
  <path
     d="m 121.70466,443.14941 a 4.49693,4.49693 0 0 1 -4.27564,-3.11425 L 86.16047,343.4707 a 1.50038,1.50038 0 0 0 -2.78491,-0.17676 l -43.33448,92.20118 a 4.50408,4.50408 0 0 1 -5.49536,2.35547 l -17.06687,-5.68946 a 4.5089,4.5089 0 0 1 -2.92774,-5.418 L 41.09555,326.19626 a 229.08189,229.08189 0 0 0 6.00342,-32.42676 73.50978,73.50978 0 0 1 23.71679,-46.877 34.20494,34.20494 0 0 0 10.76587,-20.46289 l 0.0715,-0.50293 38.87377,6.13769 24.62354,200.92871 a 4.52009,4.52009 0 0 1 -3.29688,4.8916 l -18.97387,5.1084 a 4.47969,4.47969 0 0 1 -1.17507,0.15633 z"
     fill="#2f2e41"
     id="path175" />
  <circle
     cx="93.891449"
     cy="121.29134"
     fill="#ffb8b8"
     id="circle177"
     r="24.561029" />
  <path
     d="m 118.11115,236.34863 c -0.0769,0 -0.15381,-0.002 -0.23144,-0.006 L 79.34385,234.416 a 4.475,4.475 0 0 1 -4.252,-4.03515 L 69.82744,179.05272 A 23.17175,23.17175 0 0 1 99.15166,154.3828 h 2.4e-4 a 22.47446,22.47446 0 0 1 8.24561,4.2417 c 27.10815,22.26221 18.36743,62.59815 15.04272,74.43018 a 4.48226,4.48226 0 0 1 -4.32908,3.29395 z"
     fill="#6c63ff"
     id="path179" />
  <path
     d="m 84.58625,270.81445 a 10.77781,10.77781 0 0 1 -3.16553,-0.47461 11.0024,11.0024 0 0 1 -6.90918,-14.89355 10.23809,10.23809 0 0 1 0.48316,-0.9668 L 51.85944,211.19824 a 18.013,18.013 0 0 1 3.27173,-21.25879 l 10.63379,-10.40527 13.02954,14.22949 -7.853,9.334 16.64209,46.13378 a 10.492,10.492 0 0 1 1.3894,0.48145 11.00252,11.00252 0 0 1 -4.38672,21.10156 z"
     fill="#ffb8b8"
     id="path181" />
  <path
     d="m 73.0615,203.09368 -16.586,-14.54365 a 4.50508,4.50508 0 0 1 -0.41663,-6.35031 l 18.85694,-21.505 a 12.3986,12.3986 0 0 1 20.14207,14.229 L 79.95528,201.908 a 4.49956,4.49956 0 0 1 -6.89378,1.18565 z"
     fill="#2f2e41"
     id="path183" />
  <path
     d="m 78.08643,145.14931 c 2.24091,0.79458 4.98823,1.49515 6.75163,-0.15284 1.72153,-1.60886 1.40789,-4.551 0.39375,-6.71849 -1.01414,-2.16749 -2.587,-4.09633 -3.0692,-6.45551 -0.69115,-3.38111 1.09579,-6.89375 3.64667,-9.09811 2.55088,-2.20436 5.7618,-3.36231 8.89636,-4.47657 l 17.19315,-6.11178 c 4.25582,-1.51284 8.84187,-3.29 11.22343,-7.2712 3.446,-5.76061 0.2957,-13.99506 -5.3568,-17.35649 -5.6525,-3.36143 -12.79229,-2.7352 -18.89074,-0.3716 -3.373,1.30726 -6.58157,3.10864 -10.06978,4.02888 -6.88427,1.81616 -14.71189,0.18688 -20.76149,4.06849 -5.26616,3.37892 -7.70874,10.27337 -7.53138,16.72432 0.17736,6.45095 2.55256,12.5945 5.05791,18.4942 1.49051,3.50993 3.08274,7.0603 5.60736,9.85195 2.52462,2.79165 6.17289,4.74455 9.81715,4.23088 z"
     fill="#2f2e41"
     id="path185" />
  <circle
     cx="55.576492"
     cy="100"
     fill="#2f2e41"
     id="circle187"
     r="20" />
  <path
     id="a5b0fbf6-85a2-48e8-ad40-c81376cd9893-61"
     data-name="Path 22"
     d="m 217.78824,215.45038 -0.35491,-0.0488 1.33654,-9.72271 a 5.68039,5.68039 0 0 0 -4.85388,-6.401 l -20.59957,-2.83172 a 5.68038,5.68038 0 0 0 -6.401,4.85388 l -7.33245,53.34046 a 5.68038,5.68038 0 0 0 4.85388,6.401 l 20.59956,2.83172 a 5.6804,5.6804 0 0 0 6.401,-4.85389 l 5.04444,-36.69694 0.35491,0.0488 z"
     fill="#3f3d56" />
  <path
     id="a5d1dbd7-b3f0-4599-af89-34309e57a462-62"
     data-name="Path 23"
     d="m 213.26845,202.13028 -2.56459,-0.35254 a 1.92232,1.92232 0 0 1 -2.12411,2.38125 l -11.25648,-1.54737 a 1.92233,1.92233 0 0 1 -1.40261,-2.86605 l -2.39549,-0.3293 a 4.04622,4.04622 0 0 0 -4.55957,3.4575 l -6.98382,50.80423 a 4.04624,4.04624 0 0 0 3.45751,4.55957 l 19.74328,2.714 a 4.04624,4.04624 0 0 0 4.55957,-3.4575 v 0 l 6.98382,-50.80435 a 4.04623,4.04623 0 0 0 -3.45751,-4.55949 z"
     fill="#ffffff" />
  <circle
     cx="199.26627"
     cy="233.30992"
     fill="#6c63ff"
     id="circle191"
     r="11" />
  <path
     d="m 198.17591,237.50616 a 1.14079,1.14079 0 0 1 -0.68644,-0.228 l -0.0123,-0.009 -2.58508,-1.97923 a 1.14849,1.14849 0 1 1 1.397,-1.8233 l 1.67441,1.28392 3.95691,-5.16039 a 1.14846,1.14846 0 0 1 1.61023,-0.21256 l -0.0246,0.0334 0.0252,-0.0329 a 1.14978,1.14978 0 0 1 0.21256,1.61024 l -4.65427,6.06985 a 1.149,1.149 0 0 1 -0.91369,0.44819 z"
     fill="#ffffff"
     id="path193" />
  <path
     d="M 846.42905,466.288 H 7.13502 a 1.19069,1.19069 0 0 1 0,-2.38137 h 839.29403 a 1.190685,1.190685 0 0 1 0,2.38137 z"
     fill="#cccccc"
     id="path195" />
</svg>
